<?xml version="1.0" encoding="UTF-8" standalone="no"?>
<!DOCTYPE svg PUBLIC "-//W3C//DTD SVG 1.1//EN" "http://www.w3.org/Graphics/SVG/1.1/DTD/svg11.dtd">
<svg width="100%" height="100%" viewBox="0 0 5000 5000" version="1.1" xmlns="http://www.w3.org/2000/svg" xmlns:xlink="http://www.w3.org/1999/xlink" xml:space="preserve" xmlns:serif="http://www.serif.com/" style="fill-rule:evenodd;clip-rule:evenodd;stroke-linecap:round;stroke-linejoin:round;stroke-miterlimit:1.5;">
    <g id="重画" transform="matrix(12.5474,0,0,12.5474,-6.82906,0)">
        <clipPath id="_clip1">
            <rect x="0.544" y="0" width="398.49" height="398.49"/>
        </clipPath>
        <g clip-path="url(#_clip1)">
            <g id="左下角杂项">
                <path d="M34.14,300.216C34.102,295.689 27.728,288 27.728,288L0,265L0,318C0,318 34.165,303.142 34.14,300.216Z" style="fill:rgb(159,164,160);"/>
                <path d="M0,282C5,285 14,295 17,301C20,307 0,307 0,307C0,307 -5,279 0,282Z" style="fill:rgb(176,167,157);"/>
                <g transform="matrix(1,0,0,1.04622,0,-12.525)">
                    <path d="M70.71,286.229L33.025,298.926L25,292.5L27,278L53,271L71.841,281.775L70.71,286.229Z" style="fill:rgb(155,165,177);"/>
                </g>
                <path d="M0,274C6,278.121 22.1,291.527 29,293.92C31.891,294.779 34.267,288.434 37.267,280.938C40.267,273.441 24,263 24,263L6,266L0,274" style="fill:rgb(235,245,251);"/>
            </g>
            <path id="桌子" d="M0,310L26.213,301.754L69.889,285.608L399,161L399,400L0,400" style="fill:rgb(229,167,78);"/>
            <g id="背景">
                <path id="墙右" d="M95,0L399.035,0L399,178L95,136L95,0Z" style="fill:url(#_Linear2);"/>
                <g id="墙左" transform="matrix(-0.466938,0,0,1,139.359,0)">
                    <path d="M95,0L399.035,0L399,178L95,136L95,0Z" style="fill:url(#_Linear3);"/>
                </g>
                <path id="背景1" serif:id="背景" d="M0,89C13,84 32,80 40,77C48,74 6,136 6,136L0,136L0,89Z" style="fill:rgb(224,150,43);"/>
            </g>
            <g id="头部">
                <g id="阴影" opacity="0.23">
                    <path id="阴影1" d="M0,322C-0,322 -1.855,323.543 0,323.887C44.382,332.122 59.701,357.982 88,359C78.76,358.094 42,324 0,322Z"/>
                    <path id="阴影2" d="M26.181,301.766L69.913,285.598L78,275L85,293L54,310L15,310L27.898,304.195"/>
                    <path id="阴影3" d="M141,340.5C158.284,319 157.912,333 209,333C217.004,333 231,332 240,328C287.855,323.325 317.638,310 349,277C362.362,280.058 379,262 386,257C393,252 362.362,215 362.362,215L215,234L114,281C114,281 134.129,349.047 141,340.5Z"/>
                </g>
                <g id="面部">
                    <path id="脸阴影" d="M146.403,317.933C172,324 187.901,328.897 219.998,327.897C239.99,327.274 141,306 141,306L141,315C141,315 136.26,315.529 146.403,317.933Z" style="fill:rgb(232,174,159);"/>
                    <path id="脸" d="M148,309C170.896,333.378 305.903,347.32 350,266C361.977,244.821 361.977,158 361.977,158L260,101L111,158L111,266C111,266 142.629,305.514 148,309Z" style="fill:rgb(250,236,217);"/>
                    <g id="红晕">
                        <g id="右红晕" transform="matrix(2.06383,0,0,2.06383,-246.809,-341.489)">
                            <circle cx="208.5" cy="297.5" r="23.5" style="fill:url(#_Radial4);"/>
                        </g>
                        <g id="左红晕" transform="matrix(2.06383,0,0,2.06383,-93.5051,-382.998)">
                            <circle cx="208.5" cy="297.5" r="23.5" style="fill:url(#_Radial5);"/>
                        </g>
                    </g>
                    <g id="嘴" transform="matrix(0.809727,-0.586806,-0.586806,-0.809727,223.449,701.705)">
                        <path d="M267,302C271,304.916 275,305 279,303C283,301 285.254,295.915 294,293C297,292 300,295 303,293C306,291 309.607,286 309.607,286" style="fill:none;stroke:black;stroke-width:3.48px;"/>
                    </g>
                </g>
                <g id="头发">
                    <g id="头发阴影">
                        <path d="M354,240C354,236 354.179,254.402 350,261C344.933,269 369,279 399,250C399,240.732 399.035,229 399.035,229L354,236.464C354,236.464 354,244 354,240Z" style="fill:rgb(138,129,123);"/>
                        <path d="M308,136C312,141 323.25,152.2 333,174C345.544,187.363 342,123 311,114C306.051,112.563 304,114.5 304,115.75C304,117 302,130 302,130C302,130 303.495,130.369 308,136Z" style="fill:rgb(138,129,123);"/>
                        <path d="M280,181C280,181 281.616,192 274,192C272,192 273,185 270,181C270,200.778 265,225 259,225C255.516,224.488 235,205 228,198C230.987,204.617 227.641,203.641 234.641,210.641C237.434,213.434 235.671,220.806 230,214C225,208 195,169 195,169L198,148L277,144.655L280,181Z" style="fill:rgb(138,129,123);"/>
                        <path d="M185,214C180,215.562 180.18,219 169,219C166.068,219 159,202 156,190C154.234,182.937 169,173 169,173L179,197C179,197 183.632,197.571 185,214Z" style="fill:rgb(138,129,123);"/>
                        <path d="M156,211L156,213L154,217L148,211L136,193L136,149L160,149C160,149 161.947,181.638 155.13,189.017C153.298,191 156,211 156,211Z" style="fill:rgb(138,129,123);"/>
                        <path d="M141,215C141,210 139,230 140,244C141,258 123,256 123,256L98,185L102,146L127,155L140,205C140,205 141,220 141,215Z" style="fill:rgb(138,129,123);"/>
                        <path d="M144,294C155,342 128.525,362.973 88,359C78.76,358.094 42,324 0,322L0,307C0,307 56,304 63,302C70,300 74,291 76,285C75.33,285.553 73,286 70,286C67,286 101,258 101,258L110,271C110,271 139.686,275.175 144,294Z" style="fill:rgb(138,129,123);"/>
                        <path d="M35,280C23,273 8,274 0,274L0,152L91,211L87,266C87,266 47.367,287.214 35,280Z" style="fill:rgb(138,129,123);"/>
                        <path d="M329,166C322.898,155 314.39,140.129 305.195,134.565C293.636,127.569 299,113 299,113L312,104L337,149L345,170L337,182.492L331,174C331,174 329,173.002 329,166Z" style="fill:rgb(138,129,123);"/>
                        <path d="M399.035,199L376,190L372,203L384,216L399.035,216L399.035,199Z" style="fill:rgb(138,129,123);"/>
                    </g>
                    <path id="头发本体" d="M0,322C52,328 76.965,345.574 95,345C109.029,344.554 125,327 125,327C125,327 126,325.858 126,344C126,345.414 128.28,345.217 129,344C136.236,331.764 142,309 122,286C157.804,299.249 161,304 191,291C191.918,290.602 193,285 189,285C174.513,285 154,277 140,245C138.37,246.055 137.058,246.293 136,245C127.994,234.384 115.156,197.504 119,167C119.3,163.666 124,163 124,168C124,174 126,196 142,216C141.312,209.516 142,210 142,206C142,202 149.45,221.45 152,224C157.521,225.237 158,222 158,220C158,218 156,219 156,212C154.602,214.545 151,215 150,212C149,209 141.187,192.195 146,155C147,150 144.968,166.438 156,191C157.889,190.335 157.547,188.358 160,191C173,205 178,211 189,215C191.577,215.937 184,177 184,165C184,153 193,202 231,216C234,217.105 204,177.031 204,161C204,150 217.551,184.736 260,204C264.622,206.098 263,163.487 263,154C263.295,148.954 270.558,157.489 279,180C282,188 279.72,151.561 282,147C283,145 299,176.972 299,195C299,199 324,181 308,135C306.689,131.231 306.754,126.824 305,121C303.507,116.041 310,102 337,172C337.611,173.585 336.006,176.004 333,173C329.29,169.293 329,166 329,166L329,176C329,183 330.464,178.322 334,196C335,201 353,219 354,240C354.136,239.467 356.003,236.689 359.473,240.159C360.473,241.159 365,242 367,242C369,242 386.945,242.764 395,241C403.061,239.235 385,240 383,236C381,232 395,233 399,230C399.078,221.696 399,214 399,214C399,214 383,208 379,201C375.388,194.679 382,192 399,201C399.02,197.343 399,192 399,192C399,192 382,183 379,182C376,181 383.671,182.045 399,178C398.908,169.632 399,163 399,163C399,163 362.007,142.013 362,103C361.997,87 298,24.5 235,21C206.972,19.443 54,8 2,123C1.218,124.729 4,127 0,133L0,181C0,181 7.472,178.528 12,174C16,170 22,179 0,192L0,234C24,230 42,231 52,214C55.367,208.276 57,220 33,237C28.678,240.061 37.419,241.581 39,240C45,234 61.246,231.228 77,214C79.144,204.781 79,274 31,269C11.759,266.996 65,311 101,265C102.233,263.425 103.053,270.299 102,272C89,293 94,308 0,300L0,322Z" style="fill:rgb(192,173,159);"/>
                    <g id="头发高光">
                        <path id="高光1" d="M21.717,90.471C29.717,85.471 23,118 53,121C55.964,121.296 57.162,127 51,127L43,127C43,127 30,123 7,128C4.114,128.627 1.181,124.979 2.114,123C3.931,116.886 17.081,95.58 21.717,90.471Z" style="fill:rgb(221,205,189);"/>
                        <path id="高光2" d="M99,115C106.517,122.517 129.981,131 156,131C168.164,139.621 133.038,128.734 88,157C76.7,164.092 89,122 94,115C95.429,113 98,114 99,115Z" style="fill:rgb(221,205,189);"/>
                        <path id="高光3" d="M199.5,128.072C235.191,117.631 249.571,113.43 260,99C266.541,89.949 277,109.01 277,126C277,132 270.968,124.617 265,124C226.217,120.552 194.618,142.269 199.5,128.072Z" style="fill:rgb(221,205,189);"/>
                        <path id="高光4" d="M301,96C305.852,92.766 328,83.01 328,67C328,55.004 368.608,94 364,114.805C362.084,123.456 351,91 320,99C312.015,101.061 295,100 301,96Z" style="fill:rgb(221,205,189);"/>
                    </g>
                </g>
                <g transform="matrix(0.0796981,0,0,0.0796981,108.934,-30.7643)">
                    <path d="M2659.68,3284.35C2706.35,3334.7 2799.68,3435.39 2799.68,3504C2799.68,3572.61 2659.68,3630.92 2659.68,3696C2659.68,3761.08 2799.68,3827.46 2799.68,3894.5C2799.68,3961.53 2706.35,4030.31 2659.68,4098.21" style="fill:none;stroke:rgb(0,174,227);stroke-width:260px;"/>
                </g>
                <g transform="matrix(0.0796981,0,0,0.0796981,0.544263,0)">
                    <path d="M2659.68,3284.35C2706.35,3334.7 2799.68,3435.39 2799.68,3504C2799.68,3572.61 2659.68,3630.92 2659.68,3696C2659.68,3761.08 2799.68,3827.46 2799.68,3894.5C2799.68,3961.53 2706.35,4030.31 2659.68,4098.21" style="fill:none;stroke:rgb(0,174,227);stroke-width:260px;"/>
                </g>
                <g id="眼睛">
                    <g id="眼睛左">
                        <path d="M220.066,217.015C213.315,203.317 172.503,221.82 175.709,231.582C177.083,235.767 178.643,239.494 180.34,242.788C199.052,279.102 234.55,262.806 224.013,227.006" style="fill:rgb(75,95,130);"/>
                        <path d="M180.34,242.788C199.052,279.102 234.55,262.806 224.013,227.006C210.402,231.012 208.926,225.703 201.143,229.161C191.948,233.247 192.476,240.958 180.34,242.788Z" style="fill:rgb(120,190,200);"/>
                        <path d="M210,241.138C199.5,241.138 194,249 194,250C194,251 192.077,257.643 193.335,258.712C206.803,268.251 221.645,261.988 225.155,246.618C225.722,244.138 216,241.138 210,241.138Z" style="fill:rgb(172,230,238);"/>
                    </g>
                    <g id="眼睛右">
                        <path d="M287,198C292,238 347,248 324,187C319.201,174.273 285.548,186.386 287,198Z" style="fill:rgb(75,95,130);"/>
                        <path d="M289.617,208.42C300.761,237.041 338.809,241.707 327.53,198C319.724,202.837 314.379,197.862 309,198C296.375,198.621 299.072,205.819 289.617,208.42Z" style="fill:rgb(120,190,200);"/>
                        <path d="M301.1,224.44C312.294,233.483 326.346,232.845 329.112,217.995C329.486,215.987 321.996,209 316,209C310.995,209 301.219,211.35 301.1,224.44Z" style="fill:rgb(168,230,239);"/>
                    </g>
                </g>
                <g id="眉毛">
                    <path id="眉毛左" d="M217,205C220.902,204.384 225.649,209 227.649,211C228.649,212 229.411,215.901 228,216C199.5,218 153,242 150,244C150,244 141,250 141,244C141,234 141,231.412 144,230C161,222 198,208 217,205Z" style="fill:rgb(76,65,63);"/>
                    <path id="眉毛右" d="M279,188C287,184 315,176 321,175C327,174 329,175 332,184C332.702,186.106 330,185.667 325,186.333C320,187 295,193 280,201C277,202.6 277,189 279,188Z" style="fill:rgb(76,65,63);"/>
                </g>
            </g>
        </g>
    </g>
    <defs>
        <linearGradient id="_Linear2" x1="0" y1="0" x2="1" y2="0" gradientUnits="userSpaceOnUse" gradientTransform="matrix(304.035,0,0,178,95,89)"><stop offset="0" style="stop-color:rgb(135,137,134);stop-opacity:1"/><stop offset="0.45" style="stop-color:rgb(197,198,196);stop-opacity:1"/><stop offset="1" style="stop-color:rgb(214,214,212);stop-opacity:1"/></linearGradient>
        <linearGradient id="_Linear3" x1="0" y1="0" x2="1" y2="0" gradientUnits="userSpaceOnUse" gradientTransform="matrix(304.035,0,0,178,95,89)"><stop offset="0" style="stop-color:rgb(127,130,126);stop-opacity:1"/><stop offset="0.45" style="stop-color:rgb(196,196,194);stop-opacity:1"/><stop offset="1" style="stop-color:rgb(214,214,212);stop-opacity:1"/></linearGradient>
        <radialGradient id="_Radial4" cx="0" cy="0" r="1" gradientUnits="userSpaceOnUse" gradientTransform="matrix(23.5,0,0,23.5,208.5,297.5)"><stop offset="0" style="stop-color:rgb(255,114,114);stop-opacity:0.19"/><stop offset="1" style="stop-color:rgb(250,236,217);stop-opacity:0"/></radialGradient>
        <radialGradient id="_Radial5" cx="0" cy="0" r="1" gradientUnits="userSpaceOnUse" gradientTransform="matrix(23.5,0,0,23.5,208.5,297.5)"><stop offset="0" style="stop-color:rgb(255,114,114);stop-opacity:0.19"/><stop offset="0.08" style="stop-color:rgb(255,44,44);stop-opacity:0.16"/><stop offset="0.16" style="stop-color:rgb(255,60,60);stop-opacity:0.15"/><stop offset="1" style="stop-color:rgb(250,236,217);stop-opacity:0"/><stop offset="1" style="stop-color:black;stop-opacity:0"/></radialGradient>
    </defs>
</svg>
